<svg width="25" height="24" viewBox="0 0 25 24" fill="none" xmlns="http://www.w3.org/2000/svg">
<path d="M11.0398 15H13.0421V17H11.0398V15ZM11.0398 7H13.0421V13H11.0398V7ZM12.0309 2C6.5047 2 2.02966 6.48 2.02966 12C2.02966 17.52 6.5047 22 12.0309 22C17.5671 22 22.0522 17.52 22.0522 12C22.0522 6.48 17.5671 2 12.0309 2ZM12.0409 20C7.61595 20 4.03192 16.42 4.03192 12C4.03192 7.58 7.61595 4 12.0409 4C16.4659 4 20.0499 7.58 20.0499 12C20.0499 16.42 16.4659 20 12.0409 20Z" fill="currentColor"/>
</svg>
