<svg width="106" height="25" viewBox="0 0 106 25" fill="none" xmlns="http://www.w3.org/2000/svg">
<path d="M105.278 0.40332H0.414062V24.576H105.278V0.40332Z" fill="white"/>
<path fill-rule="evenodd" clip-rule="evenodd" d="M0 0V25H106V0H0ZM0.949932 24.0517V0.90799H30.2739L22.9842 24.0517H0.949932Z" fill="#D22630"/>
<path fill-rule="evenodd" clip-rule="evenodd" d="M9.00584 3.91453C10.4101 3.20832 11.9589 2.84512 13.549 2.84512C19.0627 2.84512 23.5233 7.20347 23.5233 12.5909C23.5233 17.9783 19.0627 22.3366 13.549 22.3366C8.03526 22.3366 3.57471 17.9783 3.57471 12.5909C3.57471 9.94762 4.66919 7.4456 6.56906 5.62962V4.82252V3.91453V3.16796V2.42139H7.43639H9.48081V3.16796H7.43639V3.91453H8.61348H9.00584ZM12.2893 11.6022V10.9565H10.1416V11.582V11.8847V13.7612V13.9428V14.6692H12.2893V14.2051V13.741V11.8645V11.6022ZM10.8438 13.741H11.5665V11.8645H10.8438V13.741ZM15.6967 10.9565V11.8645V13.741V14.649H16.4194H17.8443V13.741H16.4194V13.176H17.8443V12.4295H16.4194V11.8645H17.8443V10.9565H16.4194H15.6967ZM13.549 4.51986C18.1128 4.51986 21.8093 8.13164 21.8093 12.5909C21.8093 17.0501 18.1128 20.6619 13.549 20.6619C8.98519 20.6619 5.28871 17.0501 5.28871 12.5909C5.28871 11.0372 5.74303 9.54407 6.58971 8.25271V6.31567C4.97895 8.03076 4.07032 10.2503 4.07032 12.5909C4.07032 17.716 8.32437 21.8524 13.549 21.8524C18.7736 21.8524 23.0277 17.6958 23.0277 12.5909C23.0277 7.46578 18.7736 3.32938 13.549 3.32938C12.1447 3.32938 10.7611 3.63205 9.50146 4.21719V4.84269V5.56909C10.7405 4.88306 12.1241 4.51986 13.549 4.51986ZM6.58971 9.22123C6.05279 10.2705 5.78433 11.4206 5.78433 12.6111C5.78433 16.808 9.2743 20.218 13.5696 20.218C16.5433 20.218 19.1453 18.5836 20.4463 16.1825H7.18858L6.77557 15.2745H12.9088V14.6894V13.7814V11.9048V10.9969H15.0565V11.9048V13.7814V14.1849V14.7095H13.6316V15.2947H20.6322V14.992V14.9113V14.7095H18.4845V14.427V13.8015V10.9969H19.2073V13.8015H19.9301V10.9969H20.6528V13.8015H21.2724C21.3343 13.4182 21.355 13.0348 21.355 12.6514C21.355 8.45448 17.865 5.04447 13.5696 5.04447C12.1241 5.04447 10.7405 5.42784 9.52211 6.15424V13.8015V14.7095H8.65478H7.47769H6.61036V13.8015V9.22123H6.58971ZM8.63413 13.741V4.82252H7.45704V13.741H8.63413ZM13.6316 13.741H14.3544V11.8645H13.6316V13.741Z" fill="#D22630"/>
<path fill-rule="evenodd" clip-rule="evenodd" d="M99.2698 9.72566C98.8775 8.63607 98.1753 8.21234 96.9982 8.21234C96.1722 8.21234 95.181 8.41411 95.181 9.42299C95.181 10.3713 96.3374 10.5933 97.0808 10.7144C98.1547 10.9363 99.6002 11.1986 100.509 11.8039C101.583 12.49 102.244 13.5594 102.244 14.8508C102.244 16.1018 101.624 17.3124 100.612 18.0792C99.5589 18.8863 98.1134 19.1284 96.7917 19.1284C94.3137 19.1284 92.0627 18.0792 91.4639 15.557L94.3137 14.9113C94.706 16.2632 95.6973 16.7273 97.0602 16.7273C97.9482 16.7273 99.1253 16.4044 99.1253 15.335C99.1253 14.2656 97.6178 14.0638 96.8124 13.8822C94.4789 13.4182 92.166 12.7321 92.166 9.92743C92.166 8.71678 92.641 7.66755 93.5909 6.9008C94.5615 6.11387 95.6766 5.85156 96.895 5.85156C99.2079 5.85156 101.087 6.63849 101.892 8.8782L99.2698 9.72566Z" fill="white"/>
<path fill-rule="evenodd" clip-rule="evenodd" d="M91.1708 8.61578H87.8667V18.9265H84.7898V8.61578H81.4443V6.05322H91.1708V8.61578Z" fill="white"/>
<path fill-rule="evenodd" clip-rule="evenodd" d="M73.7439 8.55524V11.1582H78.7414V13.5795H73.7439V16.4245H80.0837V18.9265H70.667V6.05322H80.0837V8.55524H73.7439Z" fill="white"/>
<path fill-rule="evenodd" clip-rule="evenodd" d="M61.192 18.9265H58.1357V6.05322H63.6908C64.8679 6.05322 66.045 6.07341 67.0775 6.71909C68.1513 7.40513 68.7502 8.67631 68.7502 9.92732C68.7502 11.4003 67.8829 12.7522 66.458 13.2566L68.8948 18.9467H65.4667L63.443 13.8619H61.192V18.9265ZM61.192 11.6222H62.8854C63.5256 11.6222 64.207 11.6828 64.7646 11.3599C65.2602 11.0573 65.5287 10.4519 65.5287 9.88696C65.5287 9.38252 65.2189 8.83773 64.7853 8.57542C64.269 8.25258 63.381 8.3333 62.8028 8.3333H61.192V11.6222Z" fill="white"/>
<path fill-rule="evenodd" clip-rule="evenodd" d="M46.3597 17.0903C45.4097 15.7586 44.9761 14.0839 44.9761 12.4696C44.9761 9.05964 46.7314 5.87158 50.6137 5.87158C52.369 5.87158 53.7526 6.43655 54.8058 7.84898C55.7557 9.09999 56.2307 10.9361 56.2307 12.4898C56.2307 13.9628 55.8177 15.7384 54.9917 16.9491C53.9798 18.422 52.4103 19.1282 50.6344 19.1282C48.8378 19.1081 47.3922 18.5229 46.3597 17.0903ZM48.6106 9.78602C48.3008 10.5528 48.1976 11.6625 48.1976 12.4696C48.1976 14.0839 48.4454 16.6464 50.6137 16.6464C51.6669 16.6464 52.2451 16.142 52.5962 15.1734C52.9059 14.3865 53.0092 13.3171 53.0092 12.4696C53.0092 11.5415 52.9059 10.4317 52.5342 9.56407C52.1419 8.69644 51.5843 8.31306 50.6344 8.31306C49.5605 8.33324 48.9823 8.85785 48.6106 9.78602Z" fill="white"/>
<path fill-rule="evenodd" clip-rule="evenodd" d="M38.6786 6.05322C39.7111 6.05322 40.7849 6.05323 41.6936 6.6182C42.7467 7.28406 43.3043 8.21222 43.3043 9.42288C43.3043 10.8958 42.3131 11.8644 40.9295 12.2074V12.2477C42.5609 12.5706 43.676 13.7812 43.676 15.456C43.676 16.5859 42.9946 17.5746 42.0653 18.2405C41.1153 18.9265 39.8143 18.9265 38.6786 18.9265H32.7725V6.05322H38.6786ZM35.8494 16.5456H37.9764C38.534 16.5456 39.2361 16.5859 39.7317 16.2631C40.1654 15.9806 40.4132 15.456 40.4132 14.9313C40.4132 14.4471 40.1035 13.9427 39.6698 13.7005C39.2361 13.4584 38.6166 13.4584 38.121 13.4584H35.8494V16.5456ZM35.8494 11.1582H37.9351C38.4721 11.1582 39.1122 11.1985 39.5665 10.8555C39.9383 10.5932 40.1241 10.1291 40.1241 9.68518C40.1241 9.2211 39.897 8.75702 39.4633 8.51489C39.0296 8.27276 38.2242 8.3333 37.6873 8.3333H35.8288V11.1582H35.8494Z" fill="white"/>
</svg>
